<?xml version="1.0" encoding="UTF-8" standalone="no"?><!DOCTYPE svg PUBLIC "-//W3C//DTD SVG 1.1//EN" "http://www.w3.org/Graphics/SVG/1.1/DTD/svg11.dtd"><svg width="100%" height="100%" viewBox="0 0 106 106" version="1.1" xmlns="http://www.w3.org/2000/svg" xmlns:xlink="http://www.w3.org/1999/xlink" xml:space="preserve" xmlns:serif="http://www.serif.com/" style="fill-rule:evenodd;clip-rule:evenodd;stroke-linejoin:round;stroke-miterlimit:2;"><path d="M105.57,0l-105.57,0l0,105.57l105.57,-0l-0,-105.57" style="fill:#02c6b2;fill-rule:nonzero;"/><path d="M84.777,19.177l-5.135,22.2l-5.085,-22.2l-5.991,0l-3.423,51.3l7.553,0l1.108,-22.7l5.839,22.7l5.84,-22.7l1.108,22.7l7.552,0l-3.423,-51.3l-5.943,0m-66,18.879l5.889,0l0,13.844l-5.889,0l-0,18.627l-7.351,0l0,-51.35l15.506,0l1.259,13.492l-9.415,0l0,5.387m27.186,-20.54c-2.019,0.116 -3.953,0.854 -5.536,2.114c-1.839,1.655 -3.358,3.635 -4.481,5.841c-2.788,6.007 -4.215,12.557 -4.178,19.181c0.038,6.623 0,11.176 4.178,19.131c1.162,2.164 2.677,4.121 4.482,5.788c1.591,1.254 3.518,2.007 5.537,2.165c2.03,-0.112 3.971,-0.871 5.539,-2.165c1.856,-1.632 3.392,-3.595 4.53,-5.789c2.785,-5.991 4.212,-12.524 4.179,-19.131c-0.034,-6.606 -0,-11.227 -4.178,-19.181c-1.163,-2.193 -2.696,-4.169 -4.532,-5.84c-1.601,-1.228 -3.527,-1.963 -5.54,-2.113Zm0,14.246c0,0 2.819,0 4.783,3.776c1.312,2.858 1.983,5.968 1.964,9.112c-0.02,3.145 -0,5.336 -1.964,9.112c0,0 -1.963,3.725 -4.782,3.725c-0,0 -2.769,0 -4.783,-3.725c-1.312,-2.857 -1.983,-5.967 -1.963,-9.112c0.019,-3.144 -0,-5.336 1.963,-9.112c-0.001,0 2.013,-3.776 4.782,-3.776Z" style="fill:#fff;fill-rule:nonzero;"/><path d="M82.562,75.462l-0.001,12.385l1.866,0l-0,-12.385l-1.863,0m-4.279,3.826l-0,3.977c-0.002,0.708 -0.138,1.408 -0.4,2.065c-0.376,0.677 -1.089,1.101 -1.863,1.108c-0.48,-0.03 -0.922,-0.27 -1.208,-0.655c-0.28,-0.651 -0.401,-1.358 -0.352,-2.065l-0,-4.43l-1.863,0l-0,5.034c-0.004,0.982 0.275,1.943 0.805,2.769c0.637,0.641 1.513,0.988 2.417,0.956l1.459,-0.3l1.058,-0.805l-0.001,0.906l1.864,0l-0.001,-8.558l-1.913,0m-15.51,-3.828l-0,12.385l1.913,0l-0,-3.977c0.003,-0.69 0.138,-1.374 0.4,-2.014c0.362,-0.695 1.078,-1.14 1.862,-1.157c0.49,0.032 0.937,0.291 1.209,0.699c0.276,0.634 0.397,1.325 0.352,2.014l-0.001,4.43l1.864,0l-0.001,-5.034c0.004,-0.981 -0.275,-1.942 -0.805,-2.769c-0.645,-0.627 -1.515,-0.972 -2.415,-0.957c-0.929,0.019 -1.814,0.398 -2.467,1.057l-0,-4.677l-1.911,0m-1.51,10.371l-0.252,0.152l-1.51,0.453c-0.752,-0.017 -1.463,-0.346 -1.964,-0.906c-0.755,-1.203 -0.735,-2.744 0.051,-3.927c0.449,-0.543 1.107,-0.872 1.812,-0.906c0.537,0.019 1.067,0.139 1.561,0.353l0.252,0.1l0.151,-1.661l-0.1,-0.05l-1.914,-0.352c-1.158,0.027 -2.267,0.475 -3.12,1.259c-0.773,0.896 -1.201,2.038 -1.209,3.222c0.028,1.164 0.455,2.284 1.209,3.172c0.842,0.807 1.954,1.274 3.12,1.308l1.964,-0.352l0.1,-0.049l-0.151,-1.812m-7.6,-4.581l0.2,-1.762l-0.152,-0.05l-1.963,-0.352c-0.8,0.005 -1.577,0.27 -2.215,0.755c-0.521,0.519 -0.811,1.227 -0.805,1.963c0.026,0.59 0.277,1.149 0.7,1.561l1.41,0.906l1.008,0.5c0.222,0.169 0.367,0.422 0.399,0.7c-0.016,0.377 -0.251,0.711 -0.6,0.856l-0.755,0.1l-0.805,-0.1l-0.957,-0.453l-0.3,-0.151l-0.1,1.762l0.1,0.05c0.739,0.348 1.55,0.519 2.366,0.5c0.737,-0.016 1.454,-0.243 2.065,-0.654c0.597,-0.521 0.945,-1.272 0.956,-2.064c-0.013,-0.638 -0.263,-1.248 -0.7,-1.712c-0.445,-0.351 -0.936,-0.639 -1.46,-0.856l-1.007,-0.555c-0.202,-0.179 -0.328,-0.43 -0.352,-0.7c0.016,-0.257 0.169,-0.486 0.4,-0.599l0.856,-0.201l0.7,0.1l0.755,0.3l0.252,0.151m-14,-5.79l0,12.385l1.863,0l0,-3.977c0.004,-0.69 0.139,-1.374 0.4,-2.013c0.363,-0.696 1.079,-1.141 1.863,-1.158c0.49,0.032 0.937,0.291 1.208,0.7c0.277,0.633 0.398,1.324 0.352,2.014l0,4.43l1.863,-0l0,-5.035c0.004,-0.981 -0.275,-1.942 -0.805,-2.768c-0.637,-0.642 -1.513,-0.989 -2.417,-0.958c-0.926,0.027 -1.808,0.405 -2.467,1.058l0,-4.677l-1.863,0m-1.812,5.588l0.2,0.1l0.2,-1.661l-0.151,-0.05c-0.61,-0.235 -1.258,-0.355 -1.913,-0.352c-1.158,0.028 -2.267,0.476 -3.121,1.259c-1.622,1.818 -1.6,4.603 0.05,6.394c0.819,0.813 1.919,1.282 3.071,1.309l1.963,-0.352l0.151,-0.05l-0.151,-1.812l-0.252,0.151l-1.51,0.453c-0.753,-0.008 -1.467,-0.338 -1.963,-0.906c-0.389,-0.58 -0.598,-1.263 -0.6,-1.962c0.012,-0.698 0.22,-1.379 0.6,-1.964c0.465,-0.552 1.143,-0.881 1.863,-0.906l1.561,0.354m-11.327,-1.963c-1.158,0.027 -2.267,0.475 -3.121,1.259c-1.622,1.817 -1.6,4.602 0.05,6.393c0.819,0.813 1.919,1.282 3.071,1.31c1.166,-0.039 2.277,-0.505 3.121,-1.309c0.766,-0.881 1.194,-2.006 1.208,-3.172c-0.021,-1.172 -0.428,-2.305 -1.158,-3.222c-0.866,-0.791 -1.991,-1.24 -3.164,-1.264l-0.007,0.005Zm0,1.611c0.693,0.026 1.338,0.358 1.762,0.906c0.379,0.585 0.587,1.265 0.6,1.963c-0.01,0.691 -0.201,1.368 -0.554,1.963c-0.438,0.556 -1.103,0.888 -1.812,0.906c-0.692,-0.027 -1.337,-0.359 -1.762,-0.906c-0.389,-0.581 -0.598,-1.264 -0.6,-1.963c0.018,-0.697 0.226,-1.376 0.6,-1.963c0.438,-0.538 1.082,-0.868 1.773,-0.91l-0.007,0.004Zm-8.156,-4.38l0,4.632l-4.984,-0l0,-4.632l-1.953,-0l0,11.529l1.963,-0l0,-5.09l4.985,0l-0,5.085l1.962,0l0,-11.529l-1.962,0m71.941,2.769c-1.09,0.025 -2.132,0.456 -2.92,1.209c-0.719,0.881 -1.11,1.984 -1.108,3.121c0.003,1.236 0.41,2.438 1.158,3.422c0.872,0.811 2.031,1.246 3.222,1.209l2.466,-0.453l0.301,-0.151l-0,-2.014l-0.3,0.252l-0.957,0.5l-1.411,0.252c-0.603,-0.018 -1.185,-0.229 -1.66,-0.6c-0.478,-0.453 -0.781,-1.059 -0.857,-1.712l5.84,-0l0,-0.2c0,-0 0.001,-4.835 -3.775,-4.835Zm-0.049,1.612c0.514,0.011 1.003,0.227 1.359,0.599c0.298,0.375 0.472,0.832 0.5,1.309l-3.827,0c0.069,-0.429 0.223,-0.839 0.453,-1.208c0.382,-0.438 0.933,-0.693 1.515,-0.701Z" style="fill:#fff;fill-rule:nonzero;"/></svg>